<svg xmlns="http://www.w3.org/2000/svg" width="12" height="12" viewBox="0 0 12 12">
    <g fill="none" fill-rule="evenodd">
        <g fill="#0F5569" fill-rule="nonzero">
            <g>
                <g>
                    <path d="M11.455 0H7.09c-.301 0-.546.244-.546.545 0 .302.245.546.546.546h3.047L4.523 6.705c-.213.213-.213.559 0 .772.107.106.246.16.386.16s.28-.054.386-.16l5.614-5.615V4.91c0 .301.244.546.546.546.3 0 .545-.245.545-.546V.545c0-.3-.244-.545-.545-.545z" transform="translate(-1083 -7942) translate(81 7741) translate(1002 201)"/>
                    <path d="M9.273 5.455c-.302 0-.546.244-.546.545v4.91H1.091V3.272H6c.301 0 .545-.244.545-.546 0-.301-.244-.545-.545-.545H.545c-.3 0-.545.244-.545.545v8.728c0 .3.244.545.545.545h8.728c.301 0 .545-.244.545-.545V6c0-.301-.244-.545-.545-.545z" transform="translate(-1083 -7942) translate(81 7741) translate(1002 201)"/>
                </g>
            </g>
        </g>
    </g>
</svg>
