<svg xmlns="http://www.w3.org/2000/svg" width="25" height="26" viewBox="0 0 25 26">
    <g fill="none" fill-rule="evenodd">
        <g fill="#0F5569" fill-rule="nonzero">
            <g>
                <g>
                    <g>
                        <g>
                            <path d="M20.035 0H.871C.436 0 0 .435 0 .87v19.12c0 .435.436.87.871.87h19.164c.436 0 .871-.435.871-.87V.87c0-.544-.326-.87-.87-.87zM6.207 17.817H3.049V7.822h3.158v9.995zM4.682 6.41c-.98 0-1.85-.76-1.85-1.847 0-.978.761-1.847 1.85-1.847.98 0 1.851.76 1.851 1.847-.109 1.086-.87 1.847-1.85 1.847zm13.175 11.407H14.7v-4.889c0-1.195 0-2.607-1.634-2.607-1.633 0-1.85 1.304-1.85 2.607v4.89h-3.05V7.821h2.94v1.413c.436-.76 1.416-1.63 2.94-1.63 3.158 0 3.703 2.064 3.703 4.78v5.432h.108z" transform="translate(-1286 -4933) translate(0 3976) translate(81 417) translate(1105 540.5) translate(100) translate(1.929 2.05)"/>
                        </g>
                    </g>
                </g>
            </g>
        </g>
    </g>
</svg>
