<svg xmlns="http://www.w3.org/2000/svg" width="176" height="88" viewBox="0 0 176 88">
    <g fill="none" fill-rule="evenodd" opacity=".384">
        <g fill="#000" fill-rule="nonzero">
            <g>
                <path d="M46.049 41.312c1.712 0 2.918-1.073 3.093-2.64h-1.546c-.176.804-.763 1.33-1.63 1.33-1.175 0-1.877-.98-1.877-2.361 0-1.393.702-2.362 1.877-2.362.867 0 1.454.526 1.63 1.33h1.547c-.176-1.567-1.382-2.64-3.094-2.64-2.187 0-3.537 1.454-3.537 3.672 0 2.217 1.35 3.67 3.537 3.67zm8.834-.062v-1.33h-2.867V34.03H50.47v7.219h4.414zm2.812 0v-7.219h-1.547v7.219h1.547zm6.617 0v-1.33H60.9v-1.67h2.681v-1.27h-2.681v-1.618h3.3v-1.33h-4.847v7.218h4.96zm2.874 0v-4.548l3.063 4.548h1.413v-7.219h-1.527v4.548l-3.063-4.548H65.67v7.219h1.516zm9.37 0v-5.888h2.084v-1.33h-5.713v1.33h2.083v5.888h1.547zm5.7.062c1.619 0 2.805-.96 2.815-2.28.01-1.453-1.083-1.824-2.32-2.051-1.196-.227-1.764-.351-1.764-.939 0-.557.475-.835 1.135-.835.753 0 1.227.423 1.289 1.031h1.516c-.031-1.31-1.196-2.269-2.805-2.269-1.568 0-2.692.918-2.692 2.187 0 1.464 1.073 1.856 2.29 2.083 1.206.237 1.794.36 1.794.97 0 .566-.526.876-1.237.876-.887 0-1.444-.485-1.496-1.186l-1.516-.02c.02 1.402 1.238 2.433 2.99 2.433zm8.707-.062v-7.219h-1.547v7.219h1.547zm3.173 0v-4.548l3.063 4.548h1.413v-7.219h-1.527v4.548l-3.063-4.548H92.62v7.219h1.516zm9.38.062c1.713 0 2.92-1.073 3.095-2.64h-1.547c-.176.804-.763 1.33-1.63 1.33-1.175 0-1.876-.98-1.876-2.361 0-1.393.7-2.362 1.876-2.362.867 0 1.454.526 1.63 1.33h1.547c-.176-1.567-1.382-2.64-3.094-2.64-2.186 0-3.537 1.454-3.537 3.672 0 2.217 1.35 3.67 3.537 3.67zm8.835-.062v-1.33h-2.867V34.03h-1.546v7.219h4.413zm3.658.062c1.949 0 2.97-1.124 2.97-3.176V34.03h-1.547v4.187c0 1.145-.423 1.764-1.423 1.764-.99 0-1.413-.62-1.413-1.764v-4.187h-1.547v4.105c0 2.052 1.021 3.176 2.96 3.176zm7.091-.062c2.207 0 3.64-1.495 3.64-3.61 0-2.113-1.433-3.609-3.64-3.609h-2.506v7.219h2.506zm0-1.29h-.959v-4.64h.96c1.34 0 2.062.95 2.062 2.32 0 1.372-.722 2.32-2.063 2.32zm9.98 1.29v-1.33h-3.414v-1.67h2.681v-1.27h-2.681v-1.618h3.3v-1.33h-4.847v7.218h4.96zm-89.016 11v-1.33H40.65v-1.67h2.681v-1.27h-2.68v-1.618h3.3v-1.33h-4.848v7.218h4.96zm2.574 0l1.568-2.423 1.536 2.423h1.888l-2.362-3.682 2.248-3.537h-1.691L48.37 47.3l-1.423-2.269H45.07l2.248 3.537-2.362 3.682h1.681zm11.155 0v-1.33H54.38v-1.67h2.68v-1.27h-2.68v-1.618h3.3v-1.33h-4.847v7.218h4.96zm4.42.062c1.712 0 2.919-1.073 3.094-2.64H63.76c-.175.804-.763 1.33-1.629 1.33-1.176 0-1.877-.98-1.877-2.361 0-1.393.701-2.362 1.877-2.362.866 0 1.454.526 1.63 1.33h1.546c-.175-1.567-1.382-2.64-3.093-2.64-2.187 0-3.538 1.454-3.538 3.672 0 2.217 1.351 3.67 3.538 3.67zm7.33 0c1.948 0 2.97-1.124 2.97-3.176V45.03h-1.548v4.187c0 1.145-.422 1.764-1.423 1.764-.99 0-1.412-.62-1.412-1.764v-4.187h-1.547v4.105c0 2.052 1.02 3.176 2.96 3.176zm7.823-.062v-5.888h2.083v-1.33h-5.713v1.33h2.083v5.888h1.547zm4.905 0v-7.219h-1.546v7.219h1.546zm5.339 0l2.444-7.219h-1.599l-1.773 5.342-1.733-5.342h-1.64l2.455 7.219h1.846zm8.453 0v-1.33h-3.414v-1.67h2.681v-1.27h-2.68v-1.618h3.3v-1.33h-4.848v7.218h4.96zm4.06.062c1.618 0 2.804-.96 2.815-2.28.01-1.453-1.083-1.824-2.32-2.051-1.197-.227-1.764-.351-1.764-.939 0-.557.474-.835 1.134-.835.753 0 1.227.423 1.29 1.031h1.515c-.03-1.31-1.196-2.269-2.805-2.269-1.567 0-2.691.918-2.691 2.187 0 1.464 1.072 1.856 2.29 2.083 1.206.237 1.793.36 1.793.97 0 .566-.525.876-1.237.876-.887 0-1.444-.485-1.495-1.186l-1.516-.02c.02 1.402 1.237 2.433 2.99 2.433zm8.707-.062v-2.929h2.64v-1.268h-2.64v-1.691h3.217v-1.33h-4.764v7.218h1.547zm6.04 0v-2.423h1.309l1.206 2.423h1.712l-1.423-2.784c.753-.361 1.238-1.104 1.238-2.032 0-1.464-1.062-2.403-2.65-2.403h-2.94v7.219h1.547zm1.268-3.712h-1.269V46.32h1.269c.732 0 1.196.433 1.196 1.114 0 .67-.464 1.104-1.196 1.104zm7.421 3.774c2.125 0 3.579-1.568 3.579-3.671 0-2.104-1.454-3.672-3.579-3.672-2.124 0-3.578 1.568-3.578 3.672 0 2.103 1.454 3.67 3.578 3.67zm0-1.31c-1.217 0-2-1-2-2.361 0-1.362.783-2.362 2-2.362 1.207 0 1.99 1 1.99 2.362 0 1.36-.783 2.361-1.99 2.361zm6.421 1.248v-4.837l1.877 4.837h1.258l1.877-4.837v4.837h1.475v-7.219h-1.99l-1.939 5.3-2-5.3h-2.032v7.219h1.474z" transform="translate(-192 -1853) translate(192 1853)"/>
            </g>
        </g>
    </g>
</svg>
