<svg xmlns="http://www.w3.org/2000/svg" width="176" height="88" viewBox="0 0 176 88">
    <g fill="none" fill-rule="evenodd" opacity=".384">
        <g fill="#000" fill-rule="nonzero">
            <g>
                <g>
                    <path d="M36.877 12.57c0 2.114-2.623 1.989-2.623 1.989h-2.623v-3.82h2.623c2.7-.017 2.623 1.832 2.623 1.832m-5.246-7.656h1.999c2.076.11 1.997 1.66 1.997 1.66 0 1.925-2.295 1.957-2.295 1.957h-1.7V4.915zm4.761 4.368s1.796-.767 1.78-2.802c0 0 .273-3.335-4.134-3.742h-4.89v13.98h5.605s4.683.014 4.683-3.944c0 0 .11-2.694-3.044-3.492M23.738 0h20.586v19.45H23.738V0zm-10.6 12.57c0 2.114-2.622 1.989-2.622 1.989H7.892v-3.82h2.624c2.7-.017 2.623 1.832 2.623 1.832M7.892 4.915h2c2.075.11 1.997 1.66 1.997 1.66 0 1.925-2.295 1.957-2.295 1.957H7.892V4.915zm4.762 4.368s1.796-.767 1.78-2.802c0 0 .272-3.335-4.134-3.742H5.41v13.98h5.605s4.683.014 4.683-3.944c0 0 .11-2.694-3.044-3.492M0 0h20.586v19.45H0V0zm63.863 3.742v2.582s-2.514-1.549-5.293-1.58c0 0-5.183-.102-5.417 4.982 0 0-.187 4.676 5.355 4.942 0 0 2.325.281 5.48-1.736v2.675s-4.232 2.52-9.134.58c0 0-4.12-1.51-4.278-6.46 0 0-.171-5.093 5.325-6.784 0 0 1.467-.563 4.105-.313 0 0 1.576.157 3.857 1.112M47.477 19.45h20.586V0H47.477v19.45z" transform="translate(-368 -1853) translate(368 1853) translate(53.969 34.375)"/>
                </g>
            </g>
        </g>
    </g>
</svg>
