<svg xmlns="http://www.w3.org/2000/svg" width="25" height="26" viewBox="0 0 25 26">
    <g fill="none" fill-rule="evenodd">
        <g fill="#0F5569" fill-rule="nonzero">
            <g>
                <g>
                    <g>
                        <g>
                            <path d="M24.71 2.478c-.909.42-1.888.706-2.913.833 1.05-.656 1.85-1.691 2.23-2.925-.98.606-2.065 1.045-3.22 1.284C19.884.643 18.567 0 17.108 0c-2.8 0-5.069 2.367-5.069 5.287 0 .414.045.819.132 1.205C7.957 6.27 4.222 4.166 1.72.968c-.435.781-.685 1.69-.685 2.659 0 1.833.894 3.452 2.252 4.4-.831-.028-1.612-.265-2.296-.661l-.001.066c0 2.562 1.747 4.7 4.067 5.184-.425.121-.874.186-1.336.186-.327 0-.643-.033-.954-.095.645 2.1 2.518 3.63 4.736 3.671-1.734 1.419-3.92 2.264-6.295 2.264-.41 0-.812-.025-1.209-.074 2.242 1.5 4.907 2.376 7.77 2.376 9.323 0 14.42-8.059 14.42-15.043 0-.23-.004-.458-.015-.685.995-.745 1.853-1.675 2.534-2.738" transform="translate(-1186 -4933) translate(0 3976) translate(81 417) translate(1105 540.5) translate(0 1.904)"/>
                        </g>
                    </g>
                </g>
            </g>
        </g>
    </g>
</svg>
