<svg xmlns="http://www.w3.org/2000/svg" width="55" height="85" viewBox="0 0 55 85">
    <g fill="none" fill-rule="evenodd">
        <g fill="#0F5569" fill-rule="nonzero">
            <g>
                <path d="M7.735 26.877c-1.457-1.811-4.104-2.098-5.914-.64-1.812 1.458-2.1 4.112-.645 5.927 4.354 5.958 4.354 14.054 0 20.012-1.467 1.805-1.195 4.461.608 5.931 1.803 1.47 4.454 1.198 5.922-.608l.029-.036c6.887-9.029 6.887-21.558 0-30.586zM24.572 14.228c-1.457-1.811-4.104-2.098-5.914-.641-1.812 1.459-2.1 4.113-.644 5.928 10.026 13.434 10.026 31.876 0 45.31-1.468 1.806-1.196 4.462.607 5.932 1.803 1.47 4.455 1.197 5.922-.609l.029-.036c12.367-16.569 12.367-39.316 0-55.884z" transform="translate(-319 -5038) translate(319 5038)"/>
                <path d="M41.41 1.579C39.941-.227 37.29-.5 35.486.97c-1.789 1.459-2.073 4.088-.636 5.896 15.625 20.934 15.625 49.674 0 70.608-1.467 1.806-1.195 4.462.607 5.932 1.803 1.47 4.455 1.197 5.922-.609l.03-.036c17.964-24.069 17.964-57.113 0-81.182z" transform="translate(-319 -5038) translate(319 5038)"/>
            </g>
        </g>
    </g>
</svg>
