<svg xmlns="http://www.w3.org/2000/svg" width="24" height="24" viewBox="0 0 24 24">
    <g fill="none" fill-rule="evenodd">
        <g fill="#FFF" fill-rule="nonzero">
            <g>
                <g>
                    <path d="M12 0C5.383 0 0 5.383 0 12s5.383 12 12 12 12-5.384 12-12S18.617 0 12 0zm0 22.141C6.409 22.141 1.859 17.592 1.859 12S6.409 1.859 12 1.859c5.592 0 10.141 4.549 10.141 10.141S17.591 22.141 12 22.141z" transform="translate(-304 -2707) translate(30 2560) rotate(90 75.5 222.5)"/>
                    <path d="M17.308 13.283L12.66 8.635c-.363-.36-.948-.36-1.31 0l-4.648 4.648c-.299.347-.299.861 0 1.209.333.39.92.435 1.31.101L12 10.606l3.997 3.987c.362.361.948.361 1.31 0 .361-.362.361-.948 0-1.31z" transform="translate(-304 -2707) translate(30 2560) rotate(90 75.5 222.5)"/>
                </g>
            </g>
        </g>
    </g>
</svg>
