<svg xmlns="http://www.w3.org/2000/svg" width="73" height="73" viewBox="0 0 73 73">
    <g fill="none" fill-rule="evenodd">
        <g fill-rule="nonzero">
            <g>
                <g>
                    <g>
                        <path fill="#F7FBFC" d="M22.67 0c12.52 0 22.67 10.15 22.67 22.67 0 12.52-10.15 22.67-22.67 22.67C10.15 45.34 0 35.19 0 22.67 0 10.15 10.15 0 22.67 0z" transform="translate(-1162 -5850) translate(205 5638) translate(957 212) translate(13.83 13.83)"/>
                        <path fill="#0F5569" d="M24.522 30.933L24.522 24.394 30.861 24.394 30.861 20.757 24.522 20.757 24.522 14.251 20.785 14.251 20.785 20.757 14.479 20.757 14.479 24.394 20.785 24.394 20.785 30.933z" transform="translate(-1162 -5850) translate(205 5638) translate(957 212) translate(13.83 13.83)"/>
                    </g>
                </g>
            </g>
        </g>
    </g>
</svg>
