<svg xmlns="http://www.w3.org/2000/svg" width="92" height="37" viewBox="0 0 92 37">
    <g fill="none" fill-rule="evenodd">
        <g fill-rule="nonzero">
            <g>
                <path fill="#0060BE" d="M0 0H91.903V37H0z" transform="translate(-345 -2880) translate(345 2880)"/>
                <g fill="#FFF">
                    <path d="M6.627.549L16.624.549 22.752 21.204 22.845 21.204 27.048.549 34.599.549 28.248 30.334 18.298 30.334 12.03 9.725 11.946 9.725 7.79 30.334.239 30.334zM37.547.549L45.572.549 43.21 11.945 52.695 11.945 55.057.549 63.083.549 56.861 30.334 48.79 30.334 51.449 17.578 42.011 17.578 39.351 30.334 31.335 30.334zM84.182 7.292c-2.056-.942-4.3-1.41-6.565-1.369-3.17 0-5.747.472-5.747 2.858 0 4.228 11.624 2.646 11.624 11.692 0 8.233-7.68 10.37-14.627 10.37-3.157-.073-6.288-.59-9.3-1.536l1.86-6.059c1.59 1.027 4.762 1.712 7.375 1.712 2.613 0 6.388-.472 6.388-3.543 0-4.782-11.624-2.988-11.624-11.396 0-7.678 6.78-9.99 13.345-9.99 3.72 0 7.16.388 9.178 1.323l-1.907 5.938z" transform="translate(-345 -2880) translate(345 2880) translate(2.356 3.022)"/>
                </g>
            </g>
        </g>
    </g>
</svg>
