<svg xmlns="http://www.w3.org/2000/svg" width="34" height="34" viewBox="0 0 34 34">
    <g fill="none" fill-rule="evenodd">
        <g fill="#0F5569" fill-rule="nonzero">
            <g>
                <g>
                    <g>
                        <path d="M29.019 4.977c-6.64-6.638-17.404-6.636-24.042.004-6.638 6.64-6.636 17.404.004 24.042 6.64 6.638 17.404 6.636 24.042-.004C32.21 25.83 34 21.505 34 16.996c0-4.508-1.793-8.831-4.981-12.019zm-3.273 18.704l-.002.002v-.006l-.862.856c-1.114 1.128-2.736 1.592-4.278 1.224-1.554-.416-3.03-1.078-4.375-1.96-1.249-.799-2.406-1.732-3.45-2.783-.962-.954-1.826-2.002-2.58-3.128-.823-1.211-1.475-2.53-1.937-3.921-.53-1.634-.09-3.426 1.133-4.63l1.009-1.009c.28-.281.736-.282 1.018-.002l.002.002 3.185 3.185c.281.28.282.736.002 1.018l-.002.002-1.87 1.87c-.537.53-.604 1.374-.16 1.983.677.929 1.426 1.802 2.24 2.613.906.91 1.892 1.74 2.946 2.476.609.425 1.434.353 1.96-.17l1.808-1.836c.28-.282.736-.283 1.018-.002l.002.002 3.19 3.196c.282.28.283.736.003 1.018z" transform="translate(-173 -483) translate(173 258) translate(0 225)"/>
                    </g>
                </g>
            </g>
        </g>
    </g>
</svg>
