<svg xmlns="http://www.w3.org/2000/svg" width="34" height="34" viewBox="0 0 34 34">
    <g fill="none" fill-rule="evenodd">
        <g fill="#0F5569" fill-rule="nonzero">
            <g>
                <g>
                    <g>
                        <path d="M4.977 4.981c6.638-6.64 17.402-6.642 24.042-.004 3.188 3.188 4.98 7.511 4.981 12.02.001 4.508-1.79 8.833-4.977 12.022-6.638 6.64-17.402 6.642-24.042.004-6.64-6.638-6.642-17.402-.004-24.042zm18.53 5.976h-13.08c-.769 0-1.396.626-1.396 1.395v9.296c0 .767.624 1.395 1.395 1.395h13.081c.767 0 1.395-.624 1.395-1.395v-9.296c0-.766-.624-1.395-1.395-1.395zM15.1 17.633l1.57 1.557c.182.18.476.18.657-.002l1.53-1.53 4.458 4.455H10.619l4.481-4.48zM9.961 12.54l4.479 4.439-4.479 4.477V12.54zm14.011.004v8.912L19.515 17l4.457-4.456zm-.657-.657l-6.319 6.316-6.373-6.316h12.692z" transform="translate(-173 -542) translate(173 258) translate(0 225) translate(0 59)"/>
                    </g>
                </g>
            </g>
        </g>
    </g>
</svg>
