<svg xmlns="http://www.w3.org/2000/svg" width="31" height="31" viewBox="0 0 31 31">
    <g fill="none" fill-rule="evenodd">
        <g>
            <g transform="translate(-440 -666) translate(440 666)">
                <circle cx="15.5" cy="15.5" r="15.5" fill="#FFF"/>
                <g fill="#0F5569" fill-rule="nonzero">
                    <g>
                        <path d="M12.515 5.412h-1.633v1.085h1.089v9.77H1.088v-9.77h1.088V5.412H.544c-.3 0-.544.243-.544.543V16.81c0 .3.243.543.544.543h11.97c.301 0 .545-.243.545-.543V5.955c0-.3-.244-.543-.544-.543z" transform="translate(9 6.47)"/>
                        <path d="M5.986 2.077L5.986 9.765 7.073 9.765 7.073 2.077 9.408 4.406 10.176 3.638 6.529 0 2.882 3.638 3.651 4.406z" transform="translate(9 6.47)"/>
                    </g>
                </g>
            </g>
        </g>
    </g>
</svg>
